<svg width="256" height="256" viewBox="0 0 256 256" fill="none" xmlns="http://www.w3.org/2000/svg">
<rect width="256" height="256" fill="black"/>
<path d="M113.131 194.07L130.724 229H150.051V228.165L129.953 189.576C132.522 188.42 134.833 187.05 136.888 185.466C138.985 183.882 140.783 182.02 142.281 179.88C143.737 177.783 144.85 175.407 145.62 172.753C146.434 170.056 146.84 167.038 146.84 163.699C146.84 159.076 146.027 155.01 144.4 151.5C142.817 147.99 140.548 145.057 137.594 142.703C134.598 140.349 131.002 138.572 126.807 137.374C122.612 136.132 117.925 135.512 112.745 135.512H81.4114V229H99.4541V194.07H113.131ZM99.4541 179.431V150.151H112.745C115.228 150.151 117.433 150.451 119.359 151.05C121.285 151.65 122.912 152.506 124.239 153.619C125.737 154.86 126.85 156.444 127.578 158.37C128.348 160.254 128.733 162.437 128.733 164.919C128.733 166.974 128.434 168.836 127.834 170.506C127.278 172.175 126.443 173.609 125.33 174.808C124.003 176.306 122.27 177.462 120.129 178.275C118.032 179.045 115.592 179.431 112.81 179.431H99.4541ZM222.671 135.512H204.757L204.693 197.473C204.65 200.513 204.329 203.188 203.729 205.5C203.13 207.811 202.231 209.737 201.033 211.278C199.92 212.777 198.507 213.911 196.795 214.681C195.125 215.409 193.199 215.773 191.016 215.773C189.004 215.773 187.228 215.431 185.687 214.746C184.146 214.018 182.84 212.948 181.77 211.535C180.614 209.994 179.737 208.046 179.137 205.692C178.581 203.338 178.281 200.598 178.239 197.473L178.174 135.512H160.132L160.067 197.473C160.067 202.696 160.795 207.362 162.25 211.471C163.749 215.538 165.846 218.962 168.543 221.744C171.24 224.527 174.472 226.646 178.239 228.101C182.048 229.556 186.307 230.284 191.016 230.284C196.024 230.284 200.476 229.556 204.372 228.101C208.31 226.646 211.649 224.505 214.388 221.68C217.085 218.898 219.14 215.473 220.552 211.407C222.008 207.34 222.735 202.696 222.735 197.473L222.671 135.512Z" fill="white"/>
</svg>
